<svg xmlns="http://www.w3.org/2000/svg" xmlns:xlink="http://www.w3.org/1999/xlink" width="72.853" height="72.853" viewBox="0 0 72.853 72.853">
  <defs>
    <clipPath id="clip-path">
      <path id="Path_1" data-name="Path 1" d="M0,0H72.853V72.853H0Z" fill="#80ba27" stroke="#707070" stroke-width="1"/>
    </clipPath>
  </defs>
  <g id="icon" clip-path="url(#clip-path)">
    <g id="diamond" transform="translate(0 0.005)">
      <g id="Group_79" data-name="Group 79">
        <path id="Path_37" data-name="Path 37" d="M72.827,20.537a2.733,2.733,0,0,0-.052-.32,2.445,2.445,0,0,0-.127-.349,2.429,2.429,0,0,0-.094-.26l-.029-.039-.016-.049L62.1,1.307c-.036-.065-.094-.117-.135-.177a2.034,2.034,0,0,0-.143-.19,2.619,2.619,0,0,0-.684-.6h-.026a2.6,2.6,0,0,0-.835-.276C60.2.055,60.122.042,60.041.037s-.133-.031-.2-.031H13.009c-.065,0-.127.021-.193.026a2.385,2.385,0,0,0-.239.031,2.638,2.638,0,0,0-.833.276h-.026a2.622,2.622,0,0,0-.684.6,2,2,0,0,0-.143.19,1.923,1.923,0,0,0-.135.177L.349,19.515l-.016.039L.3,19.593a2.352,2.352,0,0,0-.094.26,2.439,2.439,0,0,0-.127.349,2.694,2.694,0,0,0-.042.32A2.411,2.411,0,0,0,0,20.9a2.562,2.562,0,0,0,.039.312,2.9,2.9,0,0,0,.073.364,2.241,2.241,0,0,0,.117.284,2.648,2.648,0,0,0,.112.26c.018.031.044.052.065.083a.731.731,0,0,0,.039.078L34.265,71.7l.013.018a2.554,2.554,0,0,0,.507.539,2.113,2.113,0,0,0,.177.122,2.489,2.489,0,0,0,.492.26c.07.029.138.057.211.081a2.33,2.33,0,0,0,1.52,0c.073-.023.141-.052.211-.081a2.489,2.489,0,0,0,.492-.26q.091-.057.177-.122a2.555,2.555,0,0,0,.507-.539l.013-.018L72.4,22.288a.729.729,0,0,0,.039-.078c.021-.031.047-.052.065-.083a2.638,2.638,0,0,0,.112-.26,2.242,2.242,0,0,0,.117-.284,2.9,2.9,0,0,0,.073-.364,2.547,2.547,0,0,0,.049-.32,2.435,2.435,0,0,0-.028-.362ZM55.36,5.21,49.191,16,41.482,5.21ZM44.38,18.219H28.472L36.426,7.086ZM31.371,5.21,23.661,16,17.492,5.21ZM13.009,7.85l5.925,10.369H7.088ZM7.545,23.423H21.411l8.675,32.958ZM36.426,60.034,26.8,23.423H46.053Zm6.341-3.653,8.675-32.958H65.307ZM53.919,18.219,59.843,7.85l5.922,10.369Z" transform="translate(0 -0.006)" fill="#80ba27"/>
      </g>
    </g>
  </g>
</svg>
