<svg xmlns="http://www.w3.org/2000/svg" width="79.543" height="64" viewBox="0 0 79.543 64">
  <path id="logo" d="M55.929-17.375l.075.021v2.261h0a1.975,1.975,0,0,1-2.017,1.873H51.089v2.52c.009.815.353,1.191,1.136,1.2h9.151c.778-.009,1.122-.385,1.137-1.2V-21.75c-.015-.818-.359-1.2-1.143-1.2H52.225c-.783,0-1.128.385-1.136,1.2v2.52h2.889a1.9,1.9,0,0,1,1.361.522,1.9,1.9,0,0,1,.59,1.333ZM72.754-1.732V-30.667a2.093,2.093,0,0,0-.612-1.629,2.093,2.093,0,0,0-1.632-.6H45.439a2.089,2.089,0,0,0-1.624.606,2.089,2.089,0,0,0-.608,1.623v11.44h2.274V-24.9a3.459,3.459,0,0,1,3.242-3.53H64.881a3.452,3.452,0,0,1,3.231,3.53V-7.55a3.454,3.454,0,0,1-3.231,3.53H48.721a3.461,3.461,0,0,1-3.243-3.53v-5.67H43.2V.451H70.469a2.1,2.1,0,0,0,1.638-.573,2.1,2.1,0,0,0,.647-1.61ZM28.519-10.7v-2.52h-2.9a1.978,1.978,0,0,1-2.011-1.873h0v-2.261h0a1.974,1.974,0,0,1,2.011-1.873h2.9v-2.52c-.017-.818-.356-1.2-1.142-1.2H18.231c-.783,0-1.124.385-1.14,1.2V-10.7c.015.815.356,1.191,1.14,1.2h9.146C28.162-9.506,28.5-9.883,28.519-10.7ZM79.543-32.76V.149A7,7,0,0,1,72.5,7.081H43.2v3l7.1,7.471V9.393h5.455V24.47h-5.73s-5.99-6.67-6.825-8.133V24.47H36.415V-13.22H34.124v5.67a3.458,3.458,0,0,1-3.231,3.53H14.72a3.456,3.456,0,0,1-3.233-3.53V-24.9a3.454,3.454,0,0,1,3.234-3.53H30.893a3.456,3.456,0,0,1,3.231,3.53v5.673h2.291v-13.53h0a6.994,6.994,0,0,1,7.1-6.772H72.441a7,7,0,0,1,7.1,6.772ZM0,.148V-.009H0V-32.757H0a7,7,0,0,1,7.1-6.772H34.124V-32.9H9.03a2.1,2.1,0,0,0-1.625.608,2.1,2.1,0,0,0-.613,1.622V-1.733A2.1,2.1,0,0,0,7.439-.122,2.1,2.1,0,0,0,9.077.452H34.124V7.085H7.04A7,7,0,0,1,0,.148ZM9.875,20.811a1.3,1.3,0,0,0,.8-1.052A1.392,1.392,0,0,0,9.6,18.581a6.283,6.283,0,0,0-1.929-.2H6.138V21.1H7.92A3.97,3.97,0,0,0,9.875,20.811Zm-3.738-8.2v2.546h1.6A3.556,3.556,0,0,0,9.6,14.871a1.152,1.152,0,0,0,.651-.974c0-1.145-1.347-1.285-2.631-1.285Zm6.742,4.056c2.516.314,4.235,1.622,4.235,3.42a3.915,3.915,0,0,1-2.232,3.53c-1.688.843-4.038.853-6,.853H0V9.393H9.545a10.79,10.79,0,0,1,4.713.768,3.732,3.732,0,0,1,2.32,3.173c0,1.6-1.484,2.917-3.7,3.28Zm9.9-7.276H29.2l6.259,15.078H29.674l-1.132-2.987h-5.29l-1.224,2.987h-5.44ZM25.9,13.846,24.26,18.2h3.252ZM72.13,9.393h6.025L72.633,14.9l6.842,9.567H72.13l-3.756-5.688-2.266,2.194v3.494H59.789V9.393h6.319V15.6Z" transform="translate(0 39.53)" fill="#03513b" fill-rule="evenodd"/>
</svg>
