<svg xmlns="http://www.w3.org/2000/svg" width="16" height="16" viewBox="0 0 16 16">
  <path id="User" d="M24.377,26.985a4.5,4.5,0,0,0,0-8.985,4.5,4.5,0,0,0,0,8.985Zm0-7.8A3.3,3.3,0,1,1,21.233,22.5,3.224,3.224,0,0,1,24.377,19.182ZM16.963,34H31.837a.585.585,0,0,0,.563-.591,5.524,5.524,0,0,0-5.372-5.637H21.772A5.524,5.524,0,0,0,16.4,33.409.585.585,0,0,0,16.963,34Zm4.809-5.046h5.255a4.306,4.306,0,0,1,4.2,3.865H17.573A4.306,4.306,0,0,1,21.772,28.954Z" transform="translate(-16.4 -18)" fill="#707070"/>
</svg>
